# AST/ASF file generated using VICON BodyLanguage
# -----------------------------------------------
:version 1.10
:name VICON
:units
  mass 1.0
  length 0.45
  angle deg
:documentation
   .ast/.asf automatically generated from VICON data using
   VICON BodyBuilder and BodyLanguage model FoxedUp or BRILLIANT.MOD
:root
   order TX TY TZ RX RY RZ
   axis XYZ
   position 0 0 0  
   orientation 0 0 0 
:bonedata
  begin
     id 1 
     name lhipjoint
     direction 0.623415 -0.642378 0.445763 
     length 2.49859 
     axis 0 0 0  XYZ
  end
  begin
     id 2 
     name lfemur
     direction 0.34202 -0.939693 0  
     length 6.69689  
     axis 0 0 20  XYZ
    dof rx ry rz
    limits (-160.0 20.0)
           (-70.0 70.0)
           (-60.0 70.0)
  end
  begin
     id 3 
     name ltibia
     direction 0.34202 -0.939693 0   
     length 7.37574   
     axis 0 0 20   XYZ
    dof rx
    limits (-10.0 170.0)
  end
  begin
     id 4 
     name lfoot
     direction 0.084323 -0.231675 0.969132   
     length 2.09111   
     axis -90 7.62852e-016 20   XYZ
    dof rx rz
    limits (-45.0 90.0)
           (-70.0 20.0)
  end
  begin
     id 5 
     name ltoes
     direction 1.5357e-011 -4.21957e-011 1   
     length 1.04989   
     axis -90 7.62852e-016 20   XYZ
    dof rx
    limits (-90.0 20.0)
  end
  begin
     id 6 
     name rhipjoint
     direction -0.605402 -0.653903 0.45376   
     length 2.45455  
     axis 0 0 0  XYZ 
  end
  begin
     id 7 
     name rfemur
     direction -0.34202 -0.939693 0   
     length 6.64523   
     axis 0 0 -20   XYZ
    dof rx ry rz
    limits (-160.0 20.0)
           (-70.0 70.0)
           (-70.0 60.0)
  end
  begin
     id 8 
     name rtibia
     direction -0.34202 -0.939693 0   
     length 7.3339   
     axis 0 0 -20   XYZ
    dof rx
    limits (-10.0 170.0)
 end
 begin
     id 9 
     name rfoot
     direction -0.120854 -0.332043 0.93549   
     length 2.23135  
     axis -90 -7.62852e-016 -20   XYZ
    dof rx rz
    limits (-45.0 90.0)
           (-20.0 70.0)
  end
  begin
     id 10 
     name rtoes
     direction -1.53563e-011 -4.21914e-011 1   
     length 1.10614   
     axis -90 -7.62852e-016 -20   XYZ
    dof rx
    limits (-90.0 20.0)
  end
  begin
     id 11 
     name lowerback
     direction 0.0319682 0.998615 -0.0417941   
     length 2.02718   
     axis 0 0 0   XYZ
    dof rx ry rz
    limits (-20.0 45.0)
           (-30.0 30.0)
           (-30.0 30.0)
  end
  begin
     id 12 
     name upperback
     direction 7.63181e-005 0.995808 0.0914691   
     length 1.97539   
     axis 0 0 0   XYZ
    dof rx ry rz
    limits (-20.0 45.0)
           (-30.0 30.0)
           (-30.0 30.0)
  end
  begin
     id 13 
     name thorax
     direction -0.016423 0.993627 0.111514   
     length 2.00349   
     axis 0 0 0   XYZ
    dof rx ry rz
    limits (-20.0 45.0)
           (-30.0 30.0)
           (-30.0 30.0)
  end
  begin
     id 14 
     name lowerneck
     direction -0.174763 0.981668 -0.0760716   
     length 1.71436   
     axis 0 0 0   XYZ
    dof rx ry rz
    limits (-20.0 45.0)
           (-30.0 30.0)
           (-30.0 30.0)
  end
  begin
     id 15 
     name upperneck
     direction 0.345458 0.934587 -0.0848868   
     length 1.72805   
     axis 0 0 0   XYZ
    dof rx ry rz
    limits (-20.0 45.0)
           (-30.0 30.0)
           (-30.0 30.0)
  end
  begin
     id 16
     name head
     direction 0.13001 0.989848 -0.0574291  
     length 1.767  
     axis 0 0 0   XYZ
    dof rx ry rz
    limits (-20.0 45.0)
           (-30.0 30.0)
           (-30.0 30.0)
  end
  begin
     id 17 
     name lclavicle
     direction 0.952951 0.290122 0.0878234  
     length 3.54654  
     axis 0 0 0   XYZ
    dof ry rz
    limits (-20.0 10.0)
           (0.0 20.0)
  end
  begin
     id 18 
     name lhumerus
     direction 1 -4.48957e-011 -4.56525e-028   
     length 5.19807   
     axis 180 -30 -90   XYZ
    dof rx ry rz
    limits (-60.0 90.0)
           (-90.0 90.0)
           (-90.0 90.0)
  end
  begin
     id 19
     name lradius
     direction 1 -4.48979e-011 -2.0317e-027   
     length 3.0937   
     axis 180 -30 -90   XYZ
    dof rx
    limits (-10.0 170.0)
  end
  begin
     id 20
     name lwrist
     direction 1 -4.48953e-011 -3.05809e-027   
     length 1.54685   
     axis 8.48514e-016 90 90   XYZ
    dof ry
    limits (-180.0 0.0)
 end
  begin
     id 21 
     name lhand
     direction 1 -4.48952e-011 -6.11639e-027   
     length 0.672632   
     axis 3.9013e-015 90 90   XYZ
    dof rx rz
    limits (-90.0 90.0)
           (-45.0 45.0)
  end
  begin
     id 22 
     name lfingers
     direction 1 -4.48925e-011 -1.22426e-026   
     length 0.542293   
     axis 7.80276e-015 90 90   XYZ
    dof rx
    limits (0.0 90.0)
  end
  begin
     id 23
     name lthumb
     direction 0.707107 -6.3486e-011 0.707107   
     length 0.778628   
     axis -90 45 5.37419e-014   XYZ
    dof rx rz
    limits (-45.0 45.0)
           (-45.0 45.0)
  end
  begin
     id 24 
     name rclavicle
     direction -0.960732 0.273675 -0.0457849   
     length 3.52079  
     axis 0 0 0   XYZ 
    dof ry rz
    limits (-10.0 20.0)
           (-20.0 0.0)
  end
  begin
     id 25 
     name rhumerus
     direction -1 -4.48976e-011 -1.63613e-027  
     length 5.45222   
     axis 180 30 90   XYZ
    dof rx ry rz
    limits (-90.0 60.0)
           (-90.0 90.0)
           (-90.0 90.0)
  end
  begin
     id 26 
     name rradius
     direction -1 -4.48957e-011 -7.00033e-028   
     length 3.01284   
     axis 180 30 90   XYZ
    dof rx
    limits (-10.0 170.0)
  end
  begin
     id 27 
     name rwrist
     direction -1 -4.48983e-011 -3.05543e-027   
     length 1.50642   
     axis 8.48514e-016 -90 -90   XYZ
    dof ry
    limits (-180.0 0.0)
  end
  begin
     id 28
     name rhand
     direction -1 -4.48984e-011 -6.11072e-027   
     length 0.622296   
     axis 3.9013e-015 -90 -90   XYZ
    dof rx rz
    limits (-90.0 90.0)
           (-45.0 45.0)
  end
  begin
     id 29
     name rfingers
     direction -1 -4.48865e-011 -1.22637e-026   
     length 0.501711   
     axis 7.80276e-015 -90 -90   XYZ
    dof rx
    limits (0.0 90.0)
  end
  begin
     id 30
     name rthumb
     direction -0.707107 -6.34932e-011 0.707107   
     length 0.72036   
     axis -90 -45 -5.37419e-014   XYZ
    dof rx rz
    limits (-45.0 45.0)
           (-45.0 45.0)
  end
:hierarchy
  begin
    root lhipjoint rhipjoint lowerback
    lhipjoint lfemur
    lfemur ltibia
    ltibia lfoot
    lfoot ltoes
    rhipjoint rfemur
    rfemur rtibia
    rtibia rfoot
    rfoot rtoes
    lowerback upperback
    upperback thorax
    thorax lowerneck lclavicle rclavicle
    lowerneck upperneck
    upperneck head
    lclavicle lhumerus
    lhumerus lradius
    lradius lwrist
    lwrist lhand lthumb
    lhand lfingers
    rclavicle rhumerus
    rhumerus rradius
    rradius rwrist
    rwrist rhand rthumb
    rhand rfingers
  end

#!OML:ASF H:\Not Pregnant\Project 1\Capture day 1\Session 1\non-pregnant.ASF
:FULLY-SPECIFIED
:DEGREES
182
root 5.65161 15.2602 34.1963 -166.456 1.36082 -173.237
lowerback -5.42397 2.80314 10.1321
upperback -6.71561 4.20828 0.486678
thorax -3.39466 1.99741 -5.04634
lowerneck 16.8608 -6.79317 -32.1132
upperneck -2.35752 -19.3802 39.7851
head 4.24902 -12.5711 20.1509
rclavicle 4.31549e-014 5.42185e-014
rhumerus -40.5731 -7.74831 -84.5923
rradius 20.2792
rwrist 34.2441
rhand -7.43797 -3.36339
rfingers 7.12502
rthumb 18.4496 -32.5085
lclavicle 4.31549e-014 5.42185e-014
lhumerus -42.4757 -2.78752 88.4915
lradius 31.2087
lwrist 35.376
lhand -16.6845 -9.14803
lfingers 7.12502
lthumb 9.53976 20.616
rfemur 11.6604 9.85445 27.5114
rtibia 2.24643
rfoot -12.7145 13.2741
rtoes -27.4984
lfemur -49.1811 -3.35162 -8.42717
ltibia 42.5054
lfoot -9.20942 -5.90055
ltoes -20.6494
183
root 5.61326 15.2651 34.0649 -166.56 1.32106 -173.409
lowerback -5.46109 2.80678 9.91528
upperback -6.73942 4.2136 0.428829
thorax -3.4033 2.00624 -4.98517
lowerneck 17.0678 -6.78794 -32.0517
upperneck -2.46084 -19.4393 39.8441
head 4.20885 -12.6311 20.1809
rclavicle -3.93035e-014 -3.71727e-014
rhumerus -40.6303 -8.3171 -84.346
rradius 20.4168
rwrist 34.2046
rhand -7.41624 -3.36546
rfingers 7.12502
rthumb 18.4705 -32.5086
lclavicle -3.93035e-014 -3.71727e-014
lhumerus -42.4598 -2.68622 88.4103
lradius 31.0101
lwrist 35.284
lhand -16.6184 -9.13307
lfingers 7.12502
lthumb 9.60351 20.628
rfemur 9.94713 9.81195 27.2343
rtibia 6.50595
rfoot -13.5436 13.1479
rtoes -27.9839
lfemur -48.7872 -3.4596 -8.85563
ltibia 42.9104
lfoot -9.70941 -5.82855
ltoes -21.1703
184
root 5.57563 15.2722 33.9331 -166.682 1.27464 -173.615
lowerback -5.4857 2.80642 9.65928
upperback -6.75863 4.21347 0.358258
thorax -3.41554 2.01281 -4.91634
lowerneck 17.2863 -6.77765 -31.9909
upperneck -2.56556 -19.4991 39.9135
head 4.16829 -12.6947 20.2192
rclavicle -7.66874e-015 6.4605e-015
rhumerus -40.6962 -8.88919 -84.1114
rradius 20.5808
rwrist 34.0705
rhand -7.40475 -3.36699
rfingers 7.12502
rthumb 18.4815 -32.509
lclavicle -7.66874e-015 6.4605e-015
lhumerus -42.4382 -2.58007 88.3128
lradius 30.8025
lwrist 35.1489
lhand -16.5321 -9.19074
lfingers 7.12502
lthumb 9.68683 20.5665
rfemur 8.88988 9.75763 26.9409
rtibia 9.52262
rfoot -13.6041 13.2578
rtoes -28.3736
lfemur -48.3204 -3.55282 -9.33512
ltibia 43.2268
lfoot -10.2148 -5.80176
ltoes -21.6955
185
root 5.53906 15.2811 33.8016 -166.816 1.2294 -173.839
lowerback -5.47945 2.79951 9.36886
upperback -6.78306 4.20907 0.286839
thorax -3.45278 2.01719 -4.83151
lowerneck 17.5147 -6.75903 -31.9425
upperneck -2.66465 -19.5559 39.9868
head 4.12829 -12.7587 20.2656
rclavicle 4.41085e-014 -1.9133e-014
rhumerus -40.774 -9.44935 -83.8831
rradius 20.7615
rwrist 33.8834
rhand -7.43822 -3.33047
rfingers 7.12502
rthumb 18.4493 -32.4756
lclavicle 4.41085e-014 -1.9133e-014
lhumerus -42.4329 -2.47447 88.2194
lradius 30.6065
lwrist 34.9447
lhand -16.474 -9.27104
lfingers 7.12502
lthumb 9.7429 20.4836
rfemur 7.93973 9.69838 26.6411
rtibia 12.3189
rfoot -13.3397 13.4574
rtoes -28.6734
lfemur -47.7874 -3.62382 -9.84247
ltibia 43.4546
lfoot -10.7234 -5.79533
ltoes -22.2303
186
root 5.50349 15.2917 33.6706 -166.961 1.18946 -174.08
lowerback -5.44639 2.78955 9.05006
upperback -6.80762 4.20281 0.209936
thorax -3.50633 2.02057 -4.73828
lowerneck 17.741 -6.73915 -31.8905
upperneck -2.7508 -19.6127 40.055
head 4.09085 -12.8224 20.3088
rclavicle 3.22963e-014 4.48259e-014
rhumerus -40.8542 -9.97854 -83.6826
rradius 20.9682
rwrist 33.6303
rhand -7.52182 -3.26461
rfingers 7.12502
rthumb 18.3689 -32.4173
lclavicle 3.22963e-014 4.48259e-014
lhumerus -42.43 -2.38691 88.1347
lradius 30.4174
lwrist 34.6608
lhand -16.4661 -9.36731
lfingers 7.12502
lthumb 9.7505 20.387
rfemur 6.98712 9.70127 26.339
rtibia 15.0906
rfoot -12.7887 13.6509
rtoes -28.885
lfemur -47.1889 -3.6805 -10.3691
ltibia 43.5919
lfoot -11.2296 -5.7985
ltoes -22.7135
187
root 5.46896 15.3044 33.5405 -167.114 1.16299 -174.336
lowerback -5.38034 2.77533 8.7006
upperback -6.8367 4.19442 0.130642
thorax -3.58476 2.02285 -4.63269
lowerneck 17.9598 -6.7155 -31.8386
upperneck -2.80465 -19.6686 40.1084
head 4.06064 -12.8842 20.3439
rclavicle -1.22377e-014 6.95746e-015
rhumerus -40.93 -10.4687 -83.5112
rradius 21.199
rwrist 33.2974
rhand -7.62128 -3.19691
rfingers 7.12502
rthumb 18.2732 -32.3586
lclavicle -1.22377e-014 6.95746e-015
lhumerus -42.4388 -2.31943 88.0674
lradius 30.2429
lwrist 34.2996
lhand -16.5287 -9.45528
lfingers 7.12502
lthumb 9.69005 20.3018
rfemur 5.97245 9.6427 26.0114
rtibia 17.9239
rfoot -11.9728 13.9454
rtoes -28.9719
lfemur -46.5253 -3.72181 -10.9112
ltibia 43.6366
lfoot -11.7318 -5.81492
ltoes -23.1022
188
root 5.43542 15.319 33.4117 -167.269 1.15292 -174.614
lowerback -5.29956 2.76085 8.32035
upperback -6.86108 4.18496 0.0417361
thorax -3.66737 2.02523 -4.5206
lowerneck 18.1521 -6.69749 -31.7806
upperneck -2.83056 -19.7293 40.1504
head 4.04225 -12.9451 20.3673
rclavicle -1.38528e-014 -2.38542e-015
rhumerus -40.9814 -10.9074 -83.3899
rradius 21.4645
rwrist 32.8702
rhand -7.72332 -3.1579
rfingers 7.12502
rthumb 18.175 -32.3288
lclavicle -1.38528e-014 -2.38542e-015
lhumerus -42.4423 -2.2796 88.0129
lradius 30.0825
lwrist 33.8859
lhand -16.6463 -9.54787
lfingers 7.12502
lthumb 9.57658 20.2145
rfemur 4.86629 9.50409 25.6452
rtibia 20.8509
rfoot -10.8666 14.329
rtoes -28.9901
lfemur -45.8052 -3.75856 -11.4694
ltibia 43.5875
lfoot -12.2208 -5.83315
ltoes -23.352
189
root 5.40288 15.3358 33.2845 -167.425 1.17052 -174.924
lowerback -5.17543 2.74065 7.89154
upperback -6.89347 4.17198 -0.0521801
thorax -3.78533 2.02627 -4.38973
lowerneck 18.316 -6.68161 -31.7124
upperneck -2.80591 -19.788 40.1581
head 4.03471 -12.9987 20.3662
rclavicle -2.52581e-014 -1.94809e-014
rhumerus -41.0122 -11.2661 -83.3231
rradius 21.7514
rwrist 32.3473
rhand -7.83602 -3.15018
rfingers 7.12502
rthumb 18.0666 -32.3311
lclavicle -2.52581e-014 -1.94809e-014
lhumerus -42.4646 -2.25058 87.9719
lradius 29.9482
lwrist 33.4401
lhand -16.8041 -9.63471
lfingers 7.12502
lthumb 9.42441 20.1346
rfemur 3.65347 9.28276 25.2231
rtibia 23.8843
rfoot -9.42836 14.7852
rtoes -28.9622
lfemur -45.0278 -3.78905 -12.0545
ltibia 43.4448
lfoot -12.6828 -5.84412
ltoes -23.5022
190
root 5.37104 15.3544 33.1589 -167.57 1.21297 -175.261
lowerback -5.03306 2.71658 7.42395
upperback -6.93111 4.15496 -0.151875
thorax -3.92136 2.02662 -4.24462
lowerneck 18.4335 -6.67446 -31.6425
upperneck -2.72778 -19.853 40.1357
head 4.04757 -13.048 20.3407
rclavicle -2.42269e-014 4.96962e-016
rhumerus -41.0144 -11.5332 -83.3203
rradius 22.0685
rwrist 31.7212
rhand -7.91308 -3.19406
rfingers 7.12502
rthumb 17.9925 -32.3818
lclavicle -2.42269e-014 4.96962e-016
lhumerus -42.4968 -2.22059 87.9316
lradius 29.8289
lwrist 32.9849
lhand -16.9515 -9.7469
lfingers 7.12502
lthumb 9.28215 20.0288
rfemur 2.32434 8.97649 24.7435
rtibia 27.0081
rfoot -7.62032 15.2799
rtoes -28.9051
lfemur -44.211 -3.81381 -12.6628
ltibia 43.2119
lfoot -13.1049 -5.84635
ltoes -23.6089
191
root 5.33993 15.3746 33.0355 -167.698 1.29161 -175.632
lowerback -4.87678 2.69014 6.90878
upperback -6.97103 4.13467 -0.257289
thorax -4.07021 2.02743 -4.07985
lowerneck 18.5036 -6.67847 -31.5719
upperneck -2.61597 -19.92 40.0873
head 4.07478 -13.0905 20.2932
rclavicle 1.40516e-014 -5.96354e-016
rhumerus -40.971 -11.7069 -83.3768
rradius 22.3898
rwrist 31.0683
rhand -8.00516 -3.19988
rfingers 7.12502
rthumb 17.9039 -32.3958
lclavicle 1.40516e-014 -5.96354e-016
lhumerus -42.5363 -2.18481 87.887
lradius 29.7318
lwrist 32.5638
lhand -17.0611 -9.89176
lfingers 7.12502
lthumb 9.1764 19.8886
rfemur 0.870172 8.60481 24.1945
rtibia 30.2024
rfoot -5.41471 15.7739
rtoes -28.7635
lfemur -43.3663 -3.82528 -13.3023
ltibia 42.8933
lfoot -13.486 -5.83302
ltoes -23.6799
192
root 5.30936 15.3964 32.914 -167.813 1.39891 -176.036
lowerback -4.70547 2.65936 6.35731
upperback -7.01059 4.10726 -0.37206
thorax -4.22944 2.02639 -3.90548
lowerneck 18.5115 -6.69717 -31.5032
upperneck -2.46982 -19.9936 40.0201
head 4.12282 -13.1281 20.226
rclavicle 8.93289e-015 3.37934e-015
rhumerus -40.8795 -11.7656 -83.5109
rradius 22.7296
rwrist 30.3587
rhand -8.06415 -3.21881
rfingers 7.12502
rthumb 17.8471 -32.4199
lclavicle 8.93289e-015 3.37934e-015
lhumerus -42.5837 -2.15485 87.8357
lradius 29.6656
lwrist 32.1916
lhand -17.1114 -10.057
lfingers 7.12502
lthumb 9.12786 19.7254
rfemur -0.694399 8.19402 23.5832
rtibia 33.4397
rfoot -2.86104 16.2123
rtoes -28.5302
lfemur -42.4951 -3.81237 -13.9792
ltibia 42.4932
lfoot -13.8282 -5.82288
ltoes -23.7093
193
root 5.27939 15.4196 32.7952 -167.911 1.54325 -176.467
lowerback -4.51347 2.62609 5.77305
upperback -7.05289 4.07596 -0.490194
thorax -4.4055 2.02525 -3.71758
lowerneck 18.4782 -6.72086 -31.4492
upperneck -2.31094 -20.0623 39.9435
head 4.18024 -13.1576 20.1526
rclavicle -2.77802e-014 -8.15017e-015
rhumerus -40.7337 -11.728 -83.6998
rradius 23.0666
rwrist 29.6842
rhand -8.10517 -3.22255
rfingers 7.12502
rthumb 17.8076 -32.4272
lclavicle -2.77802e-014 -8.15017e-015
lhumerus -42.6509 -2.14452 87.7971
lradius 29.6491
lwrist 31.885
lhand -17.1341 -10.1894
lfingers 7.12502
lthumb 9.10597 19.594
rfemur -2.37347 7.77437 22.9194
rtibia 36.7007
rfoot -0.0281109 16.5547
rtoes -28.0747
lfemur -41.603 -3.757 -14.6897
ltibia 42.0123
lfoot -14.1326 -5.82437
ltoes -23.6959
194
root 5.25006 15.4442 32.6792 -167.995 1.72026 -176.918
lowerback -4.30302 2.5947 5.17448
upperback -7.08571 4.04312 -0.618402
thorax -4.58251 2.02431 -3.53259
lowerneck 18.3887 -6.75879 -31.3998
upperneck -2.16162 -20.1283 39.8723
head 4.24625 -13.18 20.0762
rclavicle -1.39895e-014 5.36719e-015
rhumerus -40.5223 -11.5994 -83.9551
rradius 23.4168
rwrist 29.0708
rhand -8.14193 -3.18155
rfingers 7.12502
rthumb 17.7723 -32.3894
lclavicle -1.39895e-014 5.36719e-015
lhumerus -42.7158 -2.19021 87.7769
lradius 29.6908
lwrist 31.6847
lhand -17.1325 -10.2853
lfingers 7.12502
lthumb 9.10753 19.498
rfemur -4.16299 7.36383 22.2205
rtibia 39.9723
rfoot 2.91535 16.7788
rtoes -27.3452
lfemur -40.6933 -3.64797 -15.4278
ltibia 41.4486
lfoot -14.3958 -5.85521
ltoes -23.6057
195
root 5.22152 15.471 32.566 -168.069 1.92734 -177.388
lowerback -4.07199 2.56628 4.56013
upperback -7.11227 4.01068 -0.756362
thorax -4.76519 2.0247 -3.34964
lowerneck 18.2856 -6.79685 -31.3513
upperneck -2.04731 -20.1765 39.8147
head 4.30039 -13.1924 20.0095
rclavicle 1.15916e-014 1.78906e-015
rhumerus -40.2548 -11.3777 -84.2775
rradius 23.8043
rwrist 28.4579
rhand -8.11593 -3.18528
rfingers 7.12502
rthumb 17.7973 -32.3909
lclavicle 1.15916e-014 1.78906e-015
lhumerus -42.7864 -2.30483 87.7849
lradius 29.7935
lwrist 31.6063
lhand -17.115 -10.349
lfingers 7.12502
lthumb 9.12434 19.4336
rfemur -6.06211 6.97672 21.4989
rtibia 43.2571
rfoot 5.76449 16.9084
rtoes -26.279
lfemur -39.762 -3.47334 -16.1961
ltibia 40.7998
lfoot -14.6178 -5.93526
ltoes -23.4281
196
root 5.19405 15.4996 32.4565 -168.132 2.15937 -177.875
lowerback -3.8263 2.53902 3.93187
upperback -7.12592 3.97468 -0.902059
thorax -4.94362 2.02454 -3.16705
lowerneck 18.1707 -6.82839 -31.3105
upperneck -1.96905 -20.1988 39.776
head 4.34041 -13.1915 19.9595
rclavicle 8.23838e-014 6.36111e-015
rhumerus -39.9294 -11.0714 -84.6581
rradius 24.2285
rwrist 27.868
rhand -8.06149 -3.21397
rfingers 7.12502
rthumb 17.8497 -32.4148
lclavicle 8.23838e-014 6.36111e-015
lhumerus -42.8481 -2.48384 87.8197
lradius 29.9553
lwrist 31.6631
lhand -17.0757 -10.3827
lfingers 7.12502
lthumb 9.16234 19.3983
rfemur -8.06842 6.61307 20.7712
rtibia 46.5578
rfoot 8.22693 17.0343
rtoes -25.0795
lfemur -38.8148 -3.23818 -16.987
ltibia 40.0676
lfoot -14.792 -6.06799
ltoes -23.1498
